<svg width="98" height="18" viewBox="0 0 98 18" fill="none" xmlns="http://www.w3.org/2000/svg">
<path d="M7.96 15.28C6.54667 15.28 5.30667 15.0267 4.24 14.52C3.17333 14 2.35333 13.2733 1.78 12.34C1.20667 11.4067 0.92 10.3333 0.92 9.12C0.92 7.52 1.28667 6.08 2.02 4.8C2.76667 3.52 3.80667 2.52 5.14 1.8C6.47333 1.08 7.99333 0.719999 9.7 0.719999C10.9933 0.719999 12.14 0.953333 13.14 1.42C14.14 1.87333 14.8867 2.52 15.38 3.36L12.52 5.64C11.84 4.54667 10.8133 4 9.44 4C8.54667 4 7.76 4.21333 7.08 4.64C6.4 5.05333 5.86667 5.63333 5.48 6.38C5.10667 7.11333 4.92 7.94 4.92 8.86C4.92 9.80667 5.22667 10.5667 5.84 11.14C6.45333 11.7133 7.28667 12 8.34 12C9.67333 12 10.8133 11.46 11.76 10.38L14.1 12.68C13.34 13.6 12.4533 14.2667 11.44 14.68C10.4267 15.08 9.26667 15.28 7.96 15.28ZM30.7894 0.999999L27.9894 15H24.1494L24.4294 13.64C23.896 14.1733 23.296 14.58 22.6294 14.86C21.9627 15.14 21.256 15.28 20.5094 15.28C19.0694 15.28 17.936 14.8667 17.1094 14.04C16.2827 13.2133 15.8694 12.0533 15.8694 10.56C15.8694 10 15.9294 9.4 16.0494 8.76L17.6094 0.999999H21.5694L19.9894 8.84C19.9094 9.21333 19.8694 9.56 19.8694 9.88C19.8694 10.5867 20.0494 11.12 20.4094 11.48C20.7694 11.8267 21.296 12 21.9894 12C22.8027 12 23.496 11.7533 24.0694 11.26C24.6427 10.7533 25.036 9.96667 25.2494 8.9L26.8294 0.999999H30.7894ZM45.2283 5.46C45.2283 6.74 44.8883 7.84667 44.2083 8.78C43.5283 9.7 42.5749 10.3733 41.3483 10.8L43.7283 15H39.5883L37.5083 11.28H35.5083L34.7683 15H30.8083L33.6083 0.999999H39.5883C41.3749 0.999999 42.7616 1.39333 43.7483 2.18C44.7349 2.96667 45.2283 4.06 45.2283 5.46ZM41.2283 5.84C41.2283 5.26667 41.0349 4.84 40.6483 4.56C40.2616 4.26667 39.7216 4.12 39.0283 4.12H36.9483L36.1083 8.22H38.4683C39.3483 8.22 40.0283 8.01333 40.5083 7.6C40.9883 7.18667 41.2283 6.6 41.2283 5.84ZM54.593 0.719999C56.4063 0.719999 57.833 1.18 58.873 2.1C59.9263 3.02 60.453 4.29333 60.453 5.92C60.453 6.49333 60.3996 7.04 60.293 7.56L58.793 15H54.833L55.453 11.9H50.013L49.393 15H45.493L47.073 7.06C47.4863 4.98 48.333 3.40667 49.613 2.34C50.9063 1.26 52.5663 0.719999 54.593 0.719999ZM56.073 8.84L56.373 7.3C56.453 6.9 56.493 6.54 56.493 6.22C56.493 5.48667 56.293 4.93333 55.893 4.56C55.5063 4.18667 54.9463 4 54.213 4C53.333 4 52.6196 4.24667 52.073 4.74C51.5396 5.23333 51.1663 6.02667 50.953 7.12L50.613 8.84H56.073ZM64.2919 0.999999H70.3719C71.8119 0.999999 73.0585 1.24 74.1119 1.72C75.1652 2.18667 75.9719 2.86667 76.5319 3.76C77.1052 4.64 77.3919 5.68 77.3919 6.88C77.3919 8.50667 77.0185 9.93333 76.2719 11.16C75.5385 12.3867 74.5119 13.3333 73.1919 14C71.8719 14.6667 70.3585 15 68.6519 15H61.4919L64.2919 0.999999ZM68.7719 11.84C69.7319 11.84 70.5585 11.64 71.2519 11.24C71.9585 10.8267 72.4919 10.2667 72.8519 9.56C73.2119 8.84 73.3919 8.02667 73.3919 7.12C73.3919 6.17333 73.0985 5.44667 72.5119 4.94C71.9252 4.42 71.0652 4.16 69.9319 4.16H67.6119L66.0919 11.84H68.7719ZM93.7177 0.999999L91.7377 10.86C91.311 12.98 90.4443 14.56 89.1377 15.6C87.8443 16.6533 86.151 17.18 84.0577 17.18C81.5377 17.18 79.531 16.58 78.0377 15.38L79.9777 12.5C81.2443 13.46 82.6577 13.94 84.2177 13.94C85.231 13.94 86.0243 13.6933 86.5977 13.2C87.171 12.6933 87.571 11.8667 87.7977 10.72L87.8977 10.22C87.391 10.7133 86.8177 11.0867 86.1777 11.34C85.551 11.58 84.8777 11.7 84.1577 11.7C82.7043 11.7 81.5577 11.2933 80.7177 10.48C79.891 9.65333 79.4777 8.49333 79.4777 7C79.4777 6.44 79.5377 5.84 79.6577 5.2L80.4977 0.999999H84.4577L83.5977 5.28C83.5177 5.65333 83.4777 5.99333 83.4777 6.3C83.4777 7.00667 83.6643 7.54 84.0377 7.9C84.411 8.26 84.9443 8.44 85.6377 8.44C86.451 8.44 87.1377 8.18667 87.6977 7.68C88.271 7.17333 88.6643 6.38667 88.8777 5.32L89.7377 0.999999H93.7177ZM95.1841 15.18C94.5574 15.18 94.0374 14.9867 93.6241 14.6C93.2241 14.2 93.0241 13.7 93.0241 13.1C93.0241 12.38 93.2574 11.8 93.7241 11.36C94.2041 10.9067 94.7841 10.68 95.4641 10.68C96.1041 10.68 96.6174 10.8733 97.0041 11.26C97.4041 11.6333 97.6041 12.1333 97.6041 12.76C97.6041 13.4667 97.3641 14.0467 96.8841 14.5C96.4174 14.9533 95.8507 15.18 95.1841 15.18Z" fill="#0054FD"/>
</svg>
